.
..............................Site Info...........................

 -   http://www.scenetime.com  *_*   

Good news ! SceneTime will open sign up on Easter day for one day . Its a good chance to get on on Easter day .

Scenetime .Always on time . friendly online private torrent community ..

     We care to share . Join us on  http://www.scenetime.com 

    Be the first to get new release at  http://www.scenetime.com

        Seed back for speed


...................................NFO:.................................................[img]http://i.imgur.com/pSCZ0.jpg[/img]

[b]BEYOND.2011.BRRip.XVID.AC3-ADTRG[/b]

A detective teams with a tabloid psychic to track down a missing child. 

[url]http://www.imdb.com/title/tt1800671/[/url]

Source -  BEYOND.2011.720p.BDRip.XVID.AC3.ADTRG   Thanks  Bro

Complete name                            : BEYOND.2011.BRRip.XVID.AC3-ADTRG.avi
Format                                   : AVI
Format/Info                              : Audio Video Interleave
File size                                : 1.42 GiB
Duration                                 : 1h 30mn
Overall bit rate                         : 2 260 Kbps
Writing library                          : VirtualDub build 34703/release

Video
ID                                       : 0
Format                                   : MPEG-4 Visual
Codec ID                                 : XVID
Duration                                 : 1h 30mn
Bit rate                                 : 1 867 Kbps
Width                                    : 720 pixels
Height                                   : 304 pixels
Display aspect ratio                     : 2.35:1
Frame rate                               : 23.976 fps
Stream size                              : 1.17 GiB (83%)

Audio
ID                                       : 1
Format                                   : AC-3
Bit rate                                 : 384 Kbps
Channel(s)                               : 6 channels
Channel positions                        : Front: L C R, Side: L R, LFE
Sampling rate                            : 48.0 KHz
Stream size                              : 247 MiB (17%)



Encoder - LiMeY
Good things come in small packages, So feel the wrath of my compression


[img]http://i.imgur.com/7PduO.jpg[/img]




Dont fear the Atomic Dragon, Embrace it :)

[img]http://i.imgur.com/2739o.gif?1?8830[/img]


Greetz to DragonMaster,cOOkies,Mr Geek,AnimeKing,Cush,NoWoRRiEs, DBratt, Rayne, Mr & Mrs IrNbRu and the rest of the crew

Respect to CM8,Goon,Hope,mSD,InfernO,legend-rg and maybe a few more ;)